# xmcd CD database file
#
# Track frame offsets:
#	150
#	12007
#	25307
#	39700
#	50370
#	64045
#	120447
#
# Disc length: 1729 seconds
#
# Revision: 0
# Processed by: cddbd v1.4PL0 Copyright (c) Steve Scherf et al.
# Submitted via: CDex 1.50
#
DISCID=5006bf07
DTITLE=Irma Thomas - In Between Tears
DYEAR=1900
DGENRE=Blues
TTITLE0=In Between Tears
TTITLE1=She'll Never Be Your Wife
TTITLE2=These Four Walls
TTITLE3=What's So Wrong With You Loving Me
TTITLE4=You're The Dog
TTITLE5=Coming From Behind-With Someone Would Care
TTITLE6=Turn My World Around
EXTD=
EXTT0=
EXTT1=
EXTT2=
EXTT3=
EXTT4=
EXTT5=
EXTT6=
PLAYORDER=
